<svg width="187" height="187" viewBox="0 0 187 187" fill="none" xmlns="http://www.w3.org/2000/svg">
<path d="M155.36 0H31.46C14.0851 0 0 14.0851 0 31.46V155.36C0 172.735 14.0851 186.82 31.46 186.82H155.36C172.735 186.82 186.82 172.735 186.82 155.36V31.46C186.82 14.0851 172.735 0 155.36 0Z" fill="#04005F"/>
<path d="M52.3302 47.3096L54.0702 53.1096L29.7202 134.33H43.9302L51.0802 110.49H79.8102L86.9602 134.33H101.17L75.0802 47.3096H52.3402H52.3302ZM54.9302 97.5996L65.4302 62.5896L75.9302 97.5996H54.9302Z" fill="#9D94FF"/>
<path d="M136.06 134.329C117.29 134.329 105.17 122.179 105.17 103.379C105.17 91.0391 110.25 83.4991 114.51 79.3391C119.86 74.1191 127.16 71.1191 134.53 71.1191C141.9 71.1191 148.28 73.9491 152.79 79.0891C157.98 84.9991 159.85 94.2491 158.96 104.619C158.89 105.489 158.14 106.169 157.27 106.179L119.89 106.119L120.15 107.479C121.87 116.539 129.03 121.739 139.78 121.739C143.9 121.739 148.46 120.939 153.13 119.409C153.91 119.159 154.71 119.719 154.71 120.529V128.719C154.71 129.779 154.06 130.759 153.07 131.129C147.44 133.239 141.61 134.339 136.07 134.339L136.06 134.329ZM133.42 82.6691C127.92 82.6691 121.79 86.4491 120.47 94.8891L120.26 96.2391H145.51L145.46 95.0291C145.13 86.5391 138.99 82.6791 133.42 82.6791V82.6691Z" fill="#9D94FF"/>
</svg>
