<svg width="187" height="187" viewBox="0 0 187 187" fill="none" xmlns="http://www.w3.org/2000/svg">
<path d="M155.36 0H31.46C14.0851 0 0 14.0851 0 31.46V155.36C0 172.735 14.0851 186.82 31.46 186.82H155.36C172.735 186.82 186.82 172.735 186.82 155.36V31.46C186.82 14.0851 172.735 0 155.36 0Z" fill="#390000"/>
<path d="M138.11 73.1201H125.6V135.21H138.11V73.1201Z" fill="#FF9000"/>
<path d="M131.86 64.9198C136.02 64.9198 139.4 61.5398 139.4 57.3798C139.4 53.2198 136.02 49.8398 131.86 49.8398C127.7 49.8398 124.32 53.2198 124.32 57.3798C124.32 61.5398 127.7 64.9198 131.86 64.9198Z" fill="#FF9000"/>
<path d="M66.9102 51.8097L68.0502 55.6097C68.2302 56.2197 68.2302 56.8697 68.0502 57.4797L44.7402 135.22H58.5002L65.4202 112.13H93.2402L100.16 135.22H113.92L88.8102 51.4597C88.7202 51.1497 88.4302 50.9297 88.1002 50.9297H67.5502C67.0902 50.9297 66.7602 51.3697 66.8902 51.8097H66.9102ZM69.1702 99.6397L79.3402 65.7297L89.5102 99.6397H69.1702Z" fill="#FF9000"/>
</svg>
