<?xml version="1.0" encoding="UTF-8"?>
<svg id="Layer_2" data-name="Layer 2" xmlns="http://www.w3.org/2000/svg" viewBox="0 0 88.18 44.62">
  <defs>
    <style>
      .cls-1 {
        fill: #41403e;
      }
    </style>
  </defs>
  <g id="Vector_layer" data-name="Vector layer">
    <g>
      <path class="cls-1" d="M84.02,38.27c-.02.2-.21.37-.41.33-.57-.09-1.14-.18-1.7-.3-2.76-.54-5.52-1.07-8.27-1.66.05.27-.25.51-.51.41-1.25-.46-2.5-.93-3.76-1.39-1.84-.47-3.7-.88-5.52-1.44-5.53-1.54-10.96-3.38-16.35-5.33-3.16-1.09-6.16-2.59-9.24-3.87-4.19-1.79-8.17-4.04-12.24-6.1-3.28-1.7-6.55-3.41-9.77-5.21-3.1-1.68-6.12-3.5-9.19-5.23-1.58-.91-3.18-1.78-4.71-2.75-.2,0-.32-.2-.44-.35-.21-.36.25-.78.58-.48.74.54,1.56.98,2.35,1.44-.88-.73-1.77-1.45-2.63-2.2-.33-.39.07-.77.54-.61,1.11.36,2.08,1.05,3.14,1.54,1.68.86,3.35,1.76,5.01,2.66-1.97-1.27-3.9-2.57-5.85-3.87C3.59,2.89,2.12,1.95.65,1,.36.8-.16.63.05.2.14.02.38-.06.56.05c.97.57,1.94,1.12,2.91,1.68,12.14,6.68,24.23,13.48,36.71,19.52,6.86,3.24,13.77,6.37,20.82,9.16,2.87,1.06,5.74,2.12,8.61,3.18,1.76.56,3.52,1.13,5.29,1.69.42.1.83.2,1.25.3.1.03.18.09.23.18,1.74.55,3.51,1.03,5.26,1.54.5.13,1,.27,1.51.4.29.11.83.13.88.49,0,.03,0,.06,0,.1ZM21.58,13.5c4.95,2.68,10.04,5.11,15.08,7.62,5.07,2.31,10.1,4.7,15.24,6.82,3.52,1.45,6.97,3.11,10.64,4.16.44.13.87.26,1.32.37.68.18,1.36.36,2.03.54C46.15,25.87,27.58,15.96,9.27,5.78c4.07,2.63,8.11,5.32,12.31,7.73ZM41.95,24.9c1.01.53,2.06,1,3.12,1.42,2.4.88,4.79,1.83,7.23,2.61-6.76-2.86-13.46-5.88-20.03-9.15,3.16,1.84,6.43,3.46,9.68,5.12ZM19.79,14.67c4.82,2.52,9.7,4.94,14.65,7.2-4.73-2.62-9.4-5.33-14.02-8.13-5.22-2.73-10.33-5.68-15.58-8.36,4.55,3.74,9.74,6.58,14.95,9.29Z"/>
      <path class="cls-1" d="M86.81,40.89c-.26.33-.6.05-.83-.15-.38-.31-.76-.63-1.12-.93-2.22-1.84-4.47-3.63-6.68-5.47-6.33-5.55-12.32-11.48-18.34-17.37-4.24-4.13-8.57-8.18-12.56-12.56-.27-.31.16-.82.51-.54,1.13.91,2.17,1.92,3.23,2.89.14-.07.33-.06.44.06.37.38.76.74,1.14,1.12,1.53,1.5,3.06,3,4.54,4.55,4.45,4.62,8.86,9.28,13.54,13.67,3.26,2.98,6.39,6.12,10.03,8.64.85.64,1.75,1.21,2.64,1.81.2.17.5.37.39.67-.07.18-.27.26-.45.24,1.15.98,2.35,1.88,3.47,2.89.06.05.1.13.11.21.02.1,0,.21-.07.29Z"/>
      <path class="cls-1" d="M87.97,39.2c-.84.38-1.72.68-2.61.94.34-.04.54.39.33.66-.19.24-.51.28-.79.35-1.18.26-2.39.43-3.58.66-3.14.56-6.28,1.11-9.45,1.43-5.2.64-10.44.81-15.67,1.03-3.58.11-7.16.49-10.75.29-.81-.03-1.62-.1-2.44-.1-.28-.03-.61.04-.84-.13-1.3-.21-2.77-.11-3.94-.77-.18-.09-.36-.23-.33-.45.02-.16.15-.31.31-.33.81-.03,1.57-.28,2.37-.32,2.34-.1,4.67-.27,7.01-.4,3.96-.22,7.93-.33,11.89-.21,1.66.02,3.32.11,4.98.08,1.27-.13,2.52-.37,3.77-.57,2.99-.43,5.91-1.19,8.82-2,.81-.19,2.6-1.27,3.14-.36,2.01-.48,4.02-.98,6.03-1.5.47-.13.69.56.22.72-5.68,1.49-11.43,2.77-17.21,3.76,5.19-.07,10.25-1.44,15.25-2.7,1.09-.27,2.17-.58,3.27-.79.23-.05.4.13.43.33.02.15-.04.31-.21.39ZM85.07,40.33c.04-.06.09-.12.16-.15-.17.05-.33.1-.5.14-.43.12-.86.23-1.29.35.4-.07.81-.14,1.21-.23h0c.15-.03.29-.07.43-.11Z"/>
    </g>
  </g>
</svg>