<svg width="145" height="165" viewBox="0 0 145 165" fill="none" xmlns="http://www.w3.org/2000/svg">
<path d="M72.2853 164.84L13.1709 148.429L0 0.673828H144.75L131.561 148.404L72.2853 164.84Z" fill="#0B74B8"/>
<path d="M120.27 138.999L131.542 12.7559H72.3721V152.275L120.27 138.999Z" fill="#2EAADE"/>
<path d="M31.8761 85.9188L116.139 49.2382L117.759 31.1143L30.2622 67.7949L31.8761 85.9188Z" fill="#EBEBEB"/>
<path style="mix-blend-mode:multiply" opacity="0.2" d="M31.8761 85.9188L116.139 49.2382L117.759 31.1143L30.2622 67.7949L31.8761 85.9188Z" fill="url(#paint0_linear_509_32)"/>
<path d="M72.3659 31.1143H26.9912L27.424 35.9807L28.6051 49.2382H72.4277V31.1143H72.3659Z" fill="#EBEBEB"/>
<path d="M114.488 67.7959H72.3657V85.9198H94.682L92.5735 109.417L72.3657 114.871V133.725L109.516 123.429L114.488 67.7959Z" fill="white"/>
<path d="M72.3657 50.1471V68.2896L116.139 49.2382L117.759 31.1143L72.3657 50.1471Z" fill="white"/>
<path style="mix-blend-mode:multiply" opacity="0.3" d="M72.3657 50.1471V68.2896L116.139 49.2382L117.759 31.1143L72.3657 50.1471Z" fill="url(#paint1_linear_509_32)"/>
<path d="M30.2622 67.7959L31.8761 85.9198H72.4276V67.7959H30.2622Z" fill="#EBEBEB"/>
<path d="M117.759 31.1143H72.3657V49.1949V49.2382H116.077H116.139L117.759 31.1143Z" fill="white"/>
<path d="M72.3719 114.877H72.3657L52.1889 109.429L50.8965 94.9785H41.0894H32.7046L35.246 123.429L72.3595 133.737L72.3719 133.731V114.877Z" fill="#EBEBEB"/>
<defs>
<linearGradient id="paint0_linear_509_32" x1="69.9789" y1="60.0717" x2="36.6869" y2="76.1612" gradientUnits="userSpaceOnUse">
<stop stop-color="white"/>
<stop offset="1"/>
</linearGradient>
<linearGradient id="paint1_linear_509_32" x1="72.3657" y1="49.7019" x2="117.759" y2="49.7019" gradientUnits="userSpaceOnUse">
<stop stop-color="white"/>
<stop offset="1"/>
</linearGradient>
</defs>
</svg>
