<svg width="187" height="187" viewBox="0 0 187 187" fill="none" xmlns="http://www.w3.org/2000/svg">
<g clip-path="url(#clip0_517_173)">
<path d="M145.367 186.722L41.633 186.82C18.8131 186.842 0.125658 168.19 0.0983455 145.367L1.91782e-05 41.633C-0.0218311 18.8131 18.6301 0.125658 41.4528 0.0983455L145.187 1.91782e-05C168.007 -0.0218311 186.694 18.6301 186.722 41.4528L186.82 145.187C186.845 168.015 168.19 186.7 145.367 186.722Z" fill="black"/>
<path d="M75.1102 148.292C85.2105 148.292 93.4098 140.095 93.4098 129.995V111.698H75.1102C65.0099 111.698 56.8105 119.895 56.8105 129.995C56.8105 140.095 65.0099 148.292 75.1102 148.292Z" fill="#0ACF83"/>
<path d="M56.8105 93.4014C56.8105 83.3011 65.0099 75.1045 75.1102 75.1045H93.4098V111.698H75.1102C65.0099 111.698 56.8105 103.502 56.8105 93.4014Z" fill="#A259FF"/>
<path d="M56.8105 56.8076C56.8105 46.7073 65.0099 38.5107 75.1102 38.5107H93.4098V75.1045H75.1102C65.0099 75.1045 56.8105 66.9079 56.8105 56.8076Z" fill="#F24E1E"/>
<path d="M93.4102 38.5107H111.71C121.81 38.5107 130.009 46.7073 130.009 56.8076C130.009 66.9079 121.81 75.1045 111.71 75.1045H93.4102V38.5107Z" fill="#FF7262"/>
<path d="M130.009 93.4014C130.009 103.502 121.81 111.698 111.71 111.698C101.609 111.698 93.4102 103.502 93.4102 93.4014C93.4102 83.3011 101.609 75.1045 111.71 75.1045C121.81 75.1045 130.009 83.3011 130.009 93.4014Z" fill="#1ABCFE"/>
</g>
<defs>
<clipPath id="clip0_517_173">
<rect width="186.82" height="186.82" fill="white"/>
</clipPath>
</defs>
</svg>
