<svg width="145" height="165" viewBox="0 0 145 165" fill="none" xmlns="http://www.w3.org/2000/svg">
<path d="M72.2853 164.887L13.1709 148.476L0 0.720703H144.75L131.561 148.451L72.2853 164.887Z" fill="#E44D26"/>
<path d="M120.27 139.045L131.542 12.8027H72.3721V152.321L120.27 139.045Z" fill="#F16529"/>
<path d="M72.4277 49.0448H116.139L117.759 30.9209H72.4277H72.3659H26.9912L31.8762 85.7254H72.3659H72.4277H94.6822L92.5736 109.223L72.3659 114.677V114.683H72.3473L52.1705 109.235L50.8781 94.7843H32.6862L35.2277 123.235L72.3473 133.543L72.4277 133.518V133.512L109.516 123.235L114.488 67.6015H72.4277H72.3659H48.448L46.797 49.0448H72.3659H72.4277Z" fill="white"/>
<path d="M72.3724 114.677H72.3662V114.683H72.3476L52.1708 109.235L50.8784 94.7842H32.6865L35.228 123.235L72.3476 133.542L72.3724 133.53V114.677Z" fill="#EBEBEB"/>
<path d="M72.3721 85.7254V67.6015H72.3659H48.448L46.797 49.0448H72.3659H72.3721V30.9209H72.3659H26.9912L31.8762 85.7254H72.3659H72.3721Z" fill="#EBEBEB"/>
</svg>
