<svg width="145" height="165" viewBox="0 0 145 165" fill="none" xmlns="http://www.w3.org/2000/svg">
<path d="M72.1728 164.8L13.1033 148.259L0.254395 0.477539L145 0.79907L131.483 148.494L72.1728 164.8Z" fill="#DAB92D"/>
<path d="M120.217 139.064L131.768 12.8496L72.5992 12.7197L72.29 152.234L120.217 139.064Z" fill="#FFD83A"/>
<path d="M75.8269 30.8496L75.7032 85.6463L93.8266 85.6834H94.0368L91.8788 109.18L75.6414 113.527L75.5981 132.349L108.784 123.229L113.879 67.6095L93.8637 67.5663L93.907 49.0101L115.512 49.0533H115.573L117.237 30.9362L75.8269 30.8496Z" fill="white"/>
<path d="M50.9454 30.7939L53.5053 110.126L47.9341 108.797L46.784 94.6431L32.0244 94.606L34.4977 123.062L67.6528 132.349L67.8754 30.831L50.9454 30.7939Z" fill="white"/>
</svg>
