<svg width="1589" height="837" viewBox="0 0 1589 837" fill="none" xmlns="http://www.w3.org/2000/svg">
<path fill-rule="evenodd" clip-rule="evenodd" d="M759.159 0V44.7246L802 44.7246V45.5251L759.159 45.5252V103.689H802V104.489H759.159V162.653H802V163.454H759.159V221.617H802V222.418H759.159V280.581H802V281.381H759.159V339.546H802V340.346H759.159V398.51H802V399.31H759.159V457.473H802V458.274H759.159V503H758.36V458.274H700.311V503H699.512V458.274H641.467V503H640.668V458.274H582.624V503H581.825V458.274H523.773V503H522.974V458.274H464.921V503H464.122V458.274H406.078V503H405.279V458.274H347.235V503H346.436V458.274H300V457.473H346.436V399.31H300V398.51H346.436V340.346H300V339.546H346.436V281.381H300V280.581H346.436V222.418H300V221.617H346.436V163.454H300V162.653H346.436V104.489H300V103.689H346.436V45.5252H300V44.7246L346.436 44.7246V0H347.235V44.7246H405.279V0H406.078V44.7246L464.122 44.7246V0H464.921V44.7246L522.974 44.7246V0H523.773V44.7246L581.825 44.7246V0H582.624V44.7246L640.668 44.7246V0H641.467V44.7246L699.512 44.7246V0H700.311V44.7246H758.36V0H759.159ZM347.235 457.473V399.31H405.279V457.473H347.235ZM406.078 457.473V399.31H464.122V457.473H406.078ZM464.921 457.473V399.31H522.974V457.473H464.921ZM523.773 457.473V399.31H581.825V457.473H523.773ZM582.624 457.473V399.31H640.668V457.473H582.624ZM641.467 457.473V399.31H699.512V457.473H641.467ZM700.311 457.473V399.31H758.36V457.473H700.311ZM700.311 398.51H758.36V340.346H700.311V398.51ZM641.467 398.51H699.512V340.346H641.467V398.51ZM582.624 398.51H640.668V340.346H582.624V398.51ZM523.773 398.51H581.825V340.346H523.773V398.51ZM464.921 398.51H522.974V340.346H464.921V398.51ZM406.078 398.51H464.122V340.346H406.078V398.51ZM347.235 398.51H405.279V340.346H347.235V398.51ZM347.235 339.546V281.381H405.279V339.546H347.235ZM406.078 339.546V281.381H464.122V339.546H406.078ZM464.921 339.546V281.381H522.974V339.546H464.921ZM523.773 339.546V281.381H581.825V339.546H523.773ZM582.624 339.546V281.381H640.668V339.546H582.624ZM641.467 339.546V281.381H699.512V339.546H641.467ZM700.311 339.546V281.381H758.36V339.546H700.311ZM700.311 280.581H758.36V222.418H700.311V280.581ZM641.467 280.581H699.512V222.418H641.467V280.581ZM582.624 280.581H640.668V222.418H582.624V280.581ZM523.773 280.581H581.825V222.418H523.773V280.581ZM464.921 280.581H522.974V222.418H464.921V280.581ZM406.078 280.581H464.122V222.418H406.078V280.581ZM347.235 280.581H405.279V222.418H347.235V280.581ZM347.235 221.617V163.454H405.279V221.617H347.235ZM406.078 221.617V163.454H464.122V221.617H406.078ZM464.921 221.617V163.454H522.974V221.617H464.921ZM523.773 221.617V163.454H581.825V221.617H523.773ZM582.624 221.617V163.454H640.668V221.617H582.624ZM641.467 221.617V163.454H699.512V221.617H641.467ZM700.311 221.617V163.454H758.36V221.617H700.311ZM700.311 162.653H758.36V104.489H700.311V162.653ZM641.467 162.653H699.512V104.489H641.467V162.653ZM582.624 162.653H640.668V104.489H582.624V162.653ZM523.773 162.653H581.825V104.489H523.773V162.653ZM464.921 162.653H522.974V104.489H464.921V162.653ZM406.078 162.653H464.122V104.489H406.078V162.653ZM347.235 162.653H405.279V104.489H347.235V162.653ZM347.235 103.689V45.5252H405.279V103.689H347.235ZM406.078 103.689V45.5252L464.122 45.5252V103.689H406.078ZM464.921 103.689V45.5252H522.974V103.689H464.921ZM523.773 103.689V45.5252L581.825 45.5252V103.689H523.773ZM582.624 103.689V45.5252H640.668V103.689H582.624ZM641.467 103.689V45.5252H699.512V103.689H641.467ZM700.311 103.689V45.5252H758.36V103.689H700.311Z" fill="url(#paint0_radial_507_20)"/>
<path fill-rule="evenodd" clip-rule="evenodd" d="M1004.4 209V253.724H1047.24V254.525H1004.4V312.688H1047.24V313.489H1004.4V371.653H1047.24V372.454H1004.4V430.617H1047.24V431.418H1004.4V489.581H1047.24V490.381H1004.4V548.546H1047.24V549.346H1004.4V607.509H1047.24V608.31H1004.4V666.473H1047.24V667.274H1004.4V712H1003.6V667.274H945.553V712H944.754V667.274H886.711V712H885.912V667.274H827.862V712H827.063V667.274H769.014V712H768.215V667.274H710.166V712H709.367V667.274H651.323V712H650.524V667.274H592.477V712H591.678V667.274H545.242V666.473H591.678V608.31H545.242V607.509H591.678V549.346H545.242V548.546H591.678V490.381H545.242V489.581H591.678V431.418H545.242V430.617H591.678V372.454H545.242V371.653H591.678V313.489H545.242V312.688H591.678V254.525H545.242V253.724H591.678V209H592.477V253.724H650.524V209H651.323V253.724H709.367V209H710.166V253.724H768.215V209H769.014V253.724H827.063V209H827.862V253.724H885.912V209H886.711V253.724H944.754V209H945.553V253.724H1003.6V209H1004.4ZM592.477 666.473V608.31H650.524V666.473H592.477ZM651.323 666.473V608.31H709.367V666.473H651.323ZM710.166 666.473V608.31H768.215V666.473H710.166ZM769.014 666.473V608.31H827.063V666.473H769.014ZM827.862 666.473V608.31H885.912V666.473H827.862ZM886.711 666.473V608.31H944.754V666.473H886.711ZM945.553 666.473V608.31H1003.6V666.473H945.553ZM945.553 607.509H1003.6V549.346H945.553V607.509ZM886.711 607.509H944.754V549.346H886.711V607.509ZM827.862 607.509H885.912V549.346H827.862V607.509ZM769.014 607.509H827.063V549.346H769.014V607.509ZM710.166 607.509H768.215V549.346H710.166V607.509ZM651.323 607.509H709.367V549.346H651.323V607.509ZM592.477 607.509H650.524V549.346H592.477V607.509ZM592.477 548.546V490.381H650.524V548.546H592.477ZM651.323 548.546V490.381H709.367V548.546H651.323ZM710.166 548.546V490.381H768.215V548.546H710.166ZM769.014 548.546V490.381H827.063V548.546H769.014ZM827.862 548.546V490.381H885.912V548.546H827.862ZM886.711 548.546V490.381H944.754V548.546H886.711ZM945.553 548.546V490.381H1003.6V548.546H945.553ZM945.553 489.581H1003.6V431.418H945.553V489.581ZM886.711 489.581H944.754V431.418H886.711V489.581ZM827.862 489.581H885.912V431.418H827.862V489.581ZM769.014 489.581H827.063V431.418H769.014V489.581ZM710.166 489.581H768.215V431.418H710.166V489.581ZM651.323 489.581H709.367V431.418H651.323V489.581ZM592.477 489.581H650.524V431.418H592.477V489.581ZM592.477 430.617V372.454H650.524V430.617H592.477ZM651.323 430.617V372.454H709.367V430.617H651.323ZM710.166 430.617V372.454H768.215V430.617H710.166ZM769.014 430.617V372.454H827.063V430.617H769.014ZM827.862 430.617V372.454H885.912V430.617H827.862ZM886.711 430.617V372.454H944.754V430.617H886.711ZM945.553 430.617V372.454H1003.6V430.617H945.553ZM945.553 371.653H1003.6V313.489H945.553V371.653ZM886.711 371.653H944.754V313.489H886.711V371.653ZM827.862 371.653H885.912V313.489H827.862V371.653ZM769.014 371.653H827.063V313.489H769.014V371.653ZM710.166 371.653H768.215V313.489H710.166V371.653ZM651.323 371.653H709.367V313.489H651.323V371.653ZM592.477 371.653H650.524V313.489H592.477V371.653ZM592.477 312.688V254.525H650.524V312.688H592.477ZM651.323 312.688V254.525H709.367V312.688H651.323ZM710.166 312.688V254.525H768.215V312.688H710.166ZM769.014 312.688V254.525H827.063V312.688H769.014ZM827.862 312.688V254.525H885.912V312.688H827.862ZM886.711 312.688V254.525H944.754V312.688H886.711ZM945.553 312.688V254.525H1003.6V312.688H945.553Z" fill="url(#paint1_radial_507_20)"/>
<defs>
<radialGradient id="paint0_radial_507_20" cx="0" cy="0" r="1" gradientUnits="userSpaceOnUse" gradientTransform="translate(551.001 251.5) rotate(90) scale(190.726 190.347)">
<stop stop-color="#8B8B8B" stop-opacity="0.35"/>
<stop offset="1" stop-color="#8B8B8B" stop-opacity="0"/>
</radialGradient>
<radialGradient id="paint1_radial_507_20" cx="0" cy="0" r="1" gradientUnits="userSpaceOnUse" gradientTransform="translate(796.243 460.5) rotate(90) scale(190.726 190.347)">
<stop stop-color="#8B8B8B" stop-opacity="0.35"/>
<stop offset="1" stop-color="#8B8B8B" stop-opacity="0"/>
</radialGradient>
</defs>
</svg>
