<svg width="187" height="187" viewBox="0 0 187 187" fill="none" xmlns="http://www.w3.org/2000/svg">
<path d="M155.36 0H31.46C14.0851 0 0 14.0851 0 31.46V155.36C0 172.735 14.0851 186.82 31.46 186.82H155.36C172.735 186.82 186.82 172.735 186.82 155.36V31.46C186.82 14.0851 172.735 0 155.36 0Z" fill="#011E37"/>
<path d="M67.7198 49.5901H36.8398V134.33H54.3498V108.24H67.7198C83.8898 108.24 97.0498 95.0801 97.0498 78.9101C97.0498 62.7401 83.8898 49.5801 67.7198 49.5801V49.5901ZM67.7198 92.0901H54.3498V65.7401H67.7198C74.9898 65.7401 80.8998 71.6501 80.8998 78.9201C80.8998 86.1901 74.9898 92.1001 67.7198 92.1001V92.0901Z" fill="#00ADFF"/>
<path d="M149.54 86.3502V74.0402C149.54 72.9502 148.85 71.9802 147.82 71.6102C135.36 67.1202 116.32 68.0302 109.11 79.4302C106.58 83.4202 105.89 88.2902 106.87 92.9102C108.24 99.3402 112.7 103.66 118.91 106.8C120.4 107.55 121.94 108.18 123.51 108.74C128.52 110.51 133.45 112.74 135.02 115.54C135.82 116.96 135.34 118.97 133.98 119.85C129.63 122.67 117.49 120.95 108.25 116.67C107.46 116.3 106.55 116.89 106.55 117.77V130.05C106.55 131.03 107.1 131.94 107.99 132.36C120.09 138.15 148.71 138.29 152.43 120.38C154.22 109.13 149.31 101.22 137.31 96.7402C131 94.5102 124.4 91.9802 123.36 88.4202C123.11 87.5502 123.32 86.6102 123.87 85.9002C127.25 81.5202 140.36 83.5202 147.78 87.4202C148.58 87.8402 149.54 87.2602 149.54 86.3502Z" fill="#00ADFF"/>
</svg>
