<svg width="169" height="150" viewBox="0 0 169 150" fill="none" xmlns="http://www.w3.org/2000/svg">
<path d="M99.3962 75.0048C99.3962 83.3569 92.6274 90.1257 84.2753 90.1257C75.9231 90.1257 69.1543 83.3569 69.1543 75.0048C69.1543 66.6526 75.9231 59.8838 84.2753 59.8838C92.6274 59.8838 99.3962 66.6526 99.3962 75.0048Z" fill="#00D8FF"/>
<path d="M84.2753 40.6318C37.7312 40.6318 0 56.0209 0 75.0038C0 93.9867 37.7312 109.367 84.2753 109.367C130.819 109.367 168.551 93.9783 168.551 75.0038C168.551 56.0293 130.819 40.6402 84.2753 40.6402V40.6318ZM141.224 92.8055C126.128 98.9628 105.905 102.347 84.2753 102.347C62.6452 102.347 42.4309 98.9544 27.3267 92.8055C14.6016 87.6199 7.01177 80.96 7.01177 74.9954C7.01177 69.0308 14.61 62.3792 27.3267 57.1937C42.4225 51.0364 62.6452 47.652 84.2753 47.652C105.905 47.652 126.12 51.0448 141.224 57.1937C153.949 62.3792 161.539 69.0391 161.539 74.9954C161.539 80.9516 153.941 87.6116 141.224 92.8055Z" fill="#00D8FF"/>
<path d="M54.5195 57.8218C31.2474 98.1333 25.7101 138.495 42.1379 147.986C58.5741 157.478 90.7679 132.497 114.04 92.1854C137.312 51.874 142.849 11.5039 126.413 2.02085C109.977 -7.4706 77.7832 17.5104 54.5111 57.8218H54.5195ZM128.172 34.5833C125.952 50.7347 118.782 69.9438 107.966 88.6753C97.1514 107.407 84.108 123.223 71.2238 133.217C60.3668 141.636 50.8084 144.887 45.648 141.913C40.4792 138.931 38.5189 129.029 40.387 115.416C42.607 99.2642 49.778 80.0551 60.593 61.3235C71.4081 42.6003 84.4515 26.7757 97.3357 16.7816C108.193 8.35407 117.751 5.10368 122.92 8.08599C128.08 11.0683 130.049 20.9702 128.181 34.5833H128.172Z" fill="#00D8FF"/>
<path d="M42.1375 2.01304C25.7013 11.5045 31.2387 51.8746 54.5191 92.1776C77.7912 132.489 109.985 157.47 126.421 147.979C142.857 138.487 137.32 98.1171 114.04 57.814C90.7676 17.5026 58.5737 -7.47841 42.1375 2.01304ZM45.6476 8.08656C50.808 5.10425 60.3748 8.35463 71.2318 16.7822C84.1076 26.7763 97.1594 42.5925 107.974 61.3241C118.79 80.0557 125.96 99.2648 128.18 115.416C130.049 129.029 128.08 138.94 122.92 141.913C117.759 144.896 108.192 141.645 97.3354 133.218C84.4595 123.224 71.4077 107.399 60.5926 88.6759C49.7776 69.9527 42.6066 50.7436 40.3867 34.5839C38.5185 20.9708 40.4872 11.0689 45.6476 8.08656Z" fill="#00D8FF"/>
</svg>
