<svg width="35" height="33" viewBox="0 0 35 33" fill="none" xmlns="http://www.w3.org/2000/svg">
<path d="M5.45063 6.32516C5.82361 2.4772 9.24536 -0.339827 13.0933 0.0331515L28.1428 1.49188C31.9907 1.86486 34.8078 5.28661 34.4348 9.13457L32.9761 24.184C32.6031 28.032 29.1813 30.849 25.3334 30.476L10.2839 29.0173C6.43595 28.6443 3.61892 25.2226 3.9919 21.3746L5.45063 6.32516Z" fill="white"/>
<path d="M1.57239 11.8417C1.36197 7.98141 4.32076 4.68148 8.18102 4.47106L21.6144 3.73884C25.4746 3.52842 28.7746 6.48721 28.985 10.3475L29.7172 23.7808C29.9276 27.6411 26.9688 30.941 23.1086 31.1514L9.67523 31.8837C5.81497 32.0941 2.51503 29.1353 2.30462 25.275L1.57239 11.8417Z" fill="white"/>
<path fill-rule="evenodd" clip-rule="evenodd" d="M9.44615 2.65256C1.27776 3.09626 -0.377867 4.94208 0.0658407 13.1105L0.611137 23.1492C1.05485 31.3176 2.90067 32.9732 11.0691 32.5295L21.1077 31.9842C29.2761 31.5405 30.9317 29.6947 30.488 21.5262L29.9427 11.4876C29.499 3.31918 27.6532 1.66355 19.4848 2.10726L9.44615 2.65256ZM14.2093 9.58555L20.2811 9.25573C21.0795 9.21236 21.7618 9.82369 21.8051 10.6212L21.8914 12.2095C21.9347 13.007 21.3226 13.6887 20.5243 13.7321L15.3198 14.0148C14.5215 14.0581 13.9093 14.7398 13.9527 15.5373L14.0389 17.1256C14.0823 17.9231 13.4701 18.6048 12.6717 18.6482L10.2141 18.7817C9.41565 18.825 8.73329 18.2137 8.68997 17.4162L8.55663 14.9614C8.51331 14.164 9.12543 13.4823 9.92384 13.439L11.514 13.3526C12.3125 13.3092 12.9246 12.6275 12.8813 11.83L12.8421 11.108C12.7988 10.3106 13.4109 9.62891 14.2093 9.58555ZM10.3435 21.1643C9.54507 21.2076 8.93295 21.8893 8.97626 22.6867L9.06255 24.2751C9.10587 25.0726 9.78823 25.684 10.5866 25.6406L16.6584 25.3108C17.4568 25.2674 18.069 24.5858 18.0256 23.7883L17.9629 22.6331C17.9196 21.8356 18.5317 21.1539 19.3301 21.1105L20.9203 21.0242C21.7187 20.9808 22.3308 20.2991 22.2875 19.5016L22.1542 17.0469C22.1109 16.2494 21.4285 15.6381 20.63 15.6815L18.1725 15.815C17.3741 15.8583 16.7619 16.54 16.8053 17.3375L16.9151 19.359C16.9584 20.1566 16.3463 20.8382 15.5479 20.8816L10.3435 21.1643Z" fill="black"/>
</svg>
