<svg width="24" height="24" viewBox="0 0 24 24" fill="none" xmlns="http://www.w3.org/2000/svg">
<path d="M12 6V12L16 14" stroke="#C8102E" stroke-width="2" stroke-linecap="round" stroke-linejoin="round"/>
<path d="M20 12V17" stroke="#C8102E" stroke-width="2" stroke-linecap="round" stroke-linejoin="round"/>
<path d="M20 21H20.01" stroke="#C8102E" stroke-width="2" stroke-linecap="round" stroke-linejoin="round"/>
<path d="M21.2497 8.20051C20.4954 6.36188 19.2104 4.78971 17.5586 3.68464C15.9068 2.57956 13.9632 1.99172 11.9759 1.99612C9.98856 2.00052 8.0476 2.59697 6.40074 3.70935C4.75388 4.82173 3.47581 6.39958 2.72965 8.24153C1.98349 10.0835 1.80308 12.106 2.21144 14.0509C2.61981 15.9959 3.59843 17.775 5.02241 19.1613C6.44638 20.5476 8.25113 21.4782 10.2063 21.8343C12.1615 22.1903 14.1784 21.9558 15.9997 21.1605" stroke="#C8102E" stroke-width="2" stroke-linecap="round" stroke-linejoin="round"/>
</svg>
