<svg width="1590" height="837" viewBox="0 0 1590 837" fill="none" xmlns="http://www.w3.org/2000/svg">
<g clip-path="url(#clip0_500_153)">
<path fill-rule="evenodd" clip-rule="evenodd" d="M975.841 -103V-58.2754L933 -58.2754V-57.4749L975.841 -57.4748V0.688759H933V1.48931H975.841V59.6532H933V60.4537H975.841V118.617H933V119.418H975.841V177.581H933V178.381H975.841V236.546H933V237.346H975.841V295.51H933V296.31H975.841V354.473H933V355.274H975.841V400H976.64V355.274H1034.69V400H1035.49V355.274H1093.53V400H1094.33V355.274H1152.38V400H1153.17V355.274H1211.23V400H1212.03V355.274H1270.08V400H1270.88V355.274H1328.92V400H1329.72V355.274H1387.77V400H1388.56V355.274H1435V354.473H1388.56V296.31H1435V295.51H1388.56V237.346H1435V236.546H1388.56V178.381H1435V177.581H1388.56V119.418H1435V118.617H1388.56V60.4537H1435V59.6532H1388.56V1.48931H1435V0.688759H1388.56V-57.4748H1435V-58.2754L1388.56 -58.2754V-103H1387.77V-58.2754H1329.72V-103H1328.92V-58.2754L1270.88 -58.2754V-103H1270.08V-58.2754L1212.03 -58.2754V-103H1211.23V-58.2754L1153.17 -58.2754V-103H1152.38V-58.2754H1094.33V-103H1093.53V-58.2754L1035.49 -58.2754V-103H1034.69V-58.2754H976.64V-103H975.841ZM1387.77 354.473V296.31H1329.72V354.473H1387.77ZM1328.92 354.473V296.31H1270.88V354.473H1328.92ZM1270.08 354.473V296.31H1212.03V354.473H1270.08ZM1211.23 354.473V296.31H1153.17V354.473H1211.23ZM1152.38 354.473V296.31H1094.33V354.473H1152.38ZM1093.53 354.473V296.31H1035.49V354.473H1093.53ZM1034.69 354.473V296.31H976.64V354.473H1034.69ZM1034.69 295.51H976.64V237.346H1034.69V295.51ZM1093.53 295.51H1035.49V237.346H1093.53V295.51ZM1152.38 295.51H1094.33V237.346H1152.38V295.51ZM1211.23 295.51H1153.17V237.346H1211.23V295.51ZM1270.08 295.51H1212.03V237.346H1270.08V295.51ZM1328.92 295.51H1270.88V237.346H1328.92V295.51ZM1387.77 295.51H1329.72V237.346H1387.77V295.51ZM1387.77 236.546V178.381H1329.72V236.546H1387.77ZM1328.92 236.546V178.381H1270.88V236.546H1328.92ZM1270.08 236.546V178.381H1212.03V236.546H1270.08ZM1211.23 236.546V178.381H1153.17V236.546H1211.23ZM1152.38 236.546V178.381H1094.33V236.546H1152.38ZM1093.53 236.546V178.381H1035.49V236.546H1093.53ZM1034.69 236.546V178.381H976.64V236.546H1034.69ZM1034.69 177.581H976.64V119.418H1034.69V177.581ZM1093.53 177.581H1035.49V119.418H1093.53V177.581ZM1152.38 177.581H1094.33V119.418H1152.38V177.581ZM1211.23 177.581H1153.17V119.418H1211.23V177.581ZM1270.08 177.581H1212.03V119.418H1270.08V177.581ZM1328.92 177.581H1270.88V119.418H1328.92V177.581ZM1387.77 177.581H1329.72V119.418H1387.77V177.581ZM1387.77 118.617V60.4537H1329.72V118.617H1387.77ZM1328.92 118.617V60.4537H1270.88V118.617H1328.92ZM1270.08 118.617V60.4537H1212.03V118.617H1270.08ZM1211.23 118.617V60.4537H1153.17V118.617H1211.23ZM1152.38 118.617V60.4537H1094.33V118.617H1152.38ZM1093.53 118.617V60.4537H1035.49V118.617H1093.53ZM1034.69 118.617V60.4537H976.64V118.617H1034.69ZM1034.69 59.6532H976.64V1.48931H1034.69V59.6532ZM1093.53 59.6532H1035.49V1.48931H1093.53V59.6532ZM1152.38 59.6532H1094.33V1.48931H1152.38V59.6532ZM1211.23 59.6532H1153.17V1.48931H1211.23V59.6532ZM1270.08 59.6532H1212.03V1.48931H1270.08V59.6532ZM1328.92 59.6532H1270.88V1.48931H1328.92V59.6532ZM1387.77 59.6532H1329.72V1.48931H1387.77V59.6532ZM1387.77 0.688759V-57.4748H1329.72V0.688759H1387.77ZM1328.92 0.688759V-57.4748L1270.88 -57.4748V0.688759H1328.92ZM1270.08 0.688759V-57.4748H1212.03V0.688759H1270.08ZM1211.23 0.688759V-57.4748L1153.17 -57.4748V0.688759H1211.23ZM1152.38 0.688759V-57.4748H1094.33V0.688759H1152.38ZM1093.53 0.688759V-57.4748H1035.49V0.688759H1093.53ZM1034.69 0.688759V-57.4748H976.64V0.688759H1034.69Z" fill="url(#paint0_radial_500_153)"/>
<path fill-rule="evenodd" clip-rule="evenodd" d="M584.841 209V253.724H542V254.525H584.841V312.688H542V313.489H584.841V371.653H542V372.454H584.841V430.617H542V431.418H584.841V489.581H542V490.381H584.841V548.546H542V549.346H584.841V607.509H542V608.31H584.841V666.473H542V667.274H584.841V712H585.64V667.274H643.689V712H644.488V667.274H702.531V712H703.33V667.274H761.38V712H762.179V667.274H820.228V712H821.027V667.274H879.076V712H879.875V667.274H937.919V712H938.718V667.274H996.765V712H997.564V667.274H1044V666.473H997.564V608.31H1044V607.509H997.564V549.346H1044V548.546H997.564V490.381H1044V489.581H997.564V431.418H1044V430.617H997.564V372.454H1044V371.653H997.564V313.489H1044V312.688H997.564V254.525H1044V253.724H997.564V209H996.765V253.724H938.718V209H937.919V253.724H879.875V209H879.076V253.724H821.027V209H820.228V253.724H762.179V209H761.38V253.724H703.33V209H702.531V253.724H644.488V209H643.689V253.724H585.64V209H584.841ZM996.765 666.473V608.31H938.718V666.473H996.765ZM937.919 666.473V608.31H879.875V666.473H937.919ZM879.076 666.473V608.31H821.027V666.473H879.076ZM820.228 666.473V608.31H762.179V666.473H820.228ZM761.38 666.473V608.31H703.33V666.473H761.38ZM702.531 666.473V608.31H644.488V666.473H702.531ZM643.689 666.473V608.31H585.64V666.473H643.689ZM643.689 607.509H585.64V549.346H643.689V607.509ZM702.531 607.509H644.488V549.346H702.531V607.509ZM761.38 607.509H703.33V549.346H761.38V607.509ZM820.228 607.509H762.179V549.346H820.228V607.509ZM879.076 607.509H821.027V549.346H879.076V607.509ZM937.919 607.509H879.875V549.346H937.919V607.509ZM996.765 607.509H938.718V549.346H996.765V607.509ZM996.765 548.546V490.381H938.718V548.546H996.765ZM937.919 548.546V490.381H879.875V548.546H937.919ZM879.076 548.546V490.381H821.027V548.546H879.076ZM820.228 548.546V490.381H762.179V548.546H820.228ZM761.38 548.546V490.381H703.33V548.546H761.38ZM702.531 548.546V490.381H644.488V548.546H702.531ZM643.689 548.546V490.381H585.64V548.546H643.689ZM643.689 489.581H585.64V431.418H643.689V489.581ZM702.531 489.581H644.488V431.418H702.531V489.581ZM761.38 489.581H703.33V431.418H761.38V489.581ZM820.228 489.581H762.179V431.418H820.228V489.581ZM879.076 489.581H821.027V431.418H879.076V489.581ZM937.919 489.581H879.875V431.418H937.919V489.581ZM996.765 489.581H938.718V431.418H996.765V489.581ZM996.765 430.617V372.454H938.718V430.617H996.765ZM937.919 430.617V372.454H879.875V430.617H937.919ZM879.076 430.617V372.454H821.027V430.617H879.076ZM820.228 430.617V372.454H762.179V430.617H820.228ZM761.38 430.617V372.454H703.33V430.617H761.38ZM702.531 430.617V372.454H644.488V430.617H702.531ZM643.689 430.617V372.454H585.64V430.617H643.689ZM643.689 371.653H585.64V313.489H643.689V371.653ZM702.531 371.653H644.488V313.489H702.531V371.653ZM761.38 371.653H703.33V313.489H761.38V371.653ZM820.228 371.653H762.179V313.489H820.228V371.653ZM879.076 371.653H821.027V313.489H879.076V371.653ZM937.919 371.653H879.875V313.489H937.919V371.653ZM996.765 371.653H938.718V313.489H996.765V371.653ZM996.765 312.688V254.525H938.718V312.688H996.765ZM937.919 312.688V254.525H879.875V312.688H937.919ZM879.076 312.688V254.525H821.027V312.688H879.076ZM820.228 312.688V254.525H762.179V312.688H820.228ZM761.38 312.688V254.525H703.33V312.688H761.38ZM702.531 312.688V254.525H644.488V312.688H702.531ZM643.689 312.688V254.525H585.64V312.688H643.689Z" fill="url(#paint1_radial_500_153)"/>
</g>
<defs>
<radialGradient id="paint0_radial_500_153" cx="0" cy="0" r="1" gradientUnits="userSpaceOnUse" gradientTransform="translate(1184 148.5) rotate(90) scale(190.726 190.347)">
<stop stop-color="#8B8B8B" stop-opacity="0.3"/>
<stop offset="1" stop-color="#8B8B8B" stop-opacity="0"/>
</radialGradient>
<radialGradient id="paint1_radial_500_153" cx="0" cy="0" r="1" gradientUnits="userSpaceOnUse" gradientTransform="translate(793 460.5) rotate(90) scale(190.726 190.347)">
<stop stop-color="#8B8B8B" stop-opacity="0.35"/>
<stop offset="1" stop-color="#8B8B8B" stop-opacity="0"/>
</radialGradient>
<clipPath id="clip0_500_153">
<rect width="1589" height="837" fill="white" transform="translate(0.242188)"/>
</clipPath>
</defs>
</svg>
