<svg width="36" height="37" viewBox="0 0 36 37" fill="none" xmlns="http://www.w3.org/2000/svg">
<path d="M14.0962 10.5816C14.2041 8.20113 14.791 5.97646 15.6666 3.82829C16.0063 2.99457 16.3944 2.19383 17.015 1.51029C17.7918 0.654107 18.5294 -0.246286 19.8666 0.0617983C21.4937 0.436553 22.4078 1.60292 22.7216 3.1244C22.9703 4.32867 22.8848 5.60171 22.9584 7.05721C23.5594 6.59684 24.0812 6.25577 24.5358 5.83961C26.1083 4.40165 27.9849 4.19673 29.9055 4.6943C30.5703 4.86623 31.0886 5.59048 31.2028 6.48105C31.45 8.40886 31.1292 10.1774 30.0281 11.7852C29.7584 12.1782 29.3494 12.4961 29.4691 13.1284C30.4092 13.3642 31.2819 12.7838 32.2311 12.7592C33.8673 12.7157 34.9972 13.2575 35.7046 14.7621C36.3757 16.1896 35.8034 17.4002 34.986 18.4325C33.529 20.2747 31.5397 21.3295 29.2247 21.7484C28.9354 21.8011 28.6496 21.874 28.3757 21.9351C28.2756 22.5443 28.7141 22.7218 29.0762 22.8895C30.8462 23.7099 31.7702 25.2602 32.4538 26.9459C33.2614 28.9361 31.9838 30.9924 29.8607 31.1369C27.8287 31.2752 25.9767 30.7636 24.5428 29.1761C24.2717 28.8758 23.9965 28.5347 23.4004 28.5614C23.1055 29.1804 23.4074 29.7895 23.5314 30.405C23.8129 31.8015 23.7534 33.1728 23.1496 34.4831C22.2972 36.3323 21.0293 36.6902 19.2873 35.5336C17.9221 34.6269 16.8945 33.4353 16.3762 31.8331C16.2753 31.5222 16.2802 31.0955 15.792 30.8941C15.3948 31.6057 14.9325 32.2998 14.6068 33.0535C14.2538 33.869 13.629 34.4031 12.9979 34.9582C12.2904 35.5807 11.4127 35.82 10.6723 35.3049C9.97539 34.8206 9.2287 34.3918 9.24341 33.1076C9.26232 31.4612 9.28124 29.8225 9.57823 28.0849C8.69285 28.3214 8.06454 28.7874 7.31575 28.9747C6.58587 29.1579 5.88962 29.207 5.18566 28.9979C3.5795 28.5207 3.07447 27.2034 3.61102 25.6167C4.26175 23.6938 5.57231 22.4425 7.7059 21.34C5.69419 21.0263 4.19451 20.5477 2.809 19.7518C1.73029 19.1322 0.932472 18.2563 0.351091 17.1791C-0.36898 15.845 0.0519952 14.6842 1.30792 13.8133C3.04716 12.6084 4.84383 13.1031 6.65662 13.4189C7.05098 13.4877 7.40541 13.814 7.92445 13.5782C7.87612 12.9431 7.33886 12.6154 7.03627 12.1452C5.91063 10.3963 4.97272 8.66711 5.83988 6.41157C6.63701 4.33989 8.29429 4.17778 9.59994 5.17362C11.1276 6.33929 12.1874 7.82497 13.1492 9.42996C13.3782 9.81173 13.3635 10.3802 14.0948 10.5816H14.0962ZM28.3267 7.65794C26.855 8.29026 25.7336 8.98573 24.9106 10.1647C23.9488 11.543 22.791 12.7922 21.9105 14.2168C21.2423 15.2976 20.4283 15.1832 19.496 14.9404C18.1119 14.579 17.9074 14.2484 18.5644 12.9487C19.9177 10.2721 19.9373 7.38705 20.0221 4.50762C20.0333 4.12304 20.0543 3.65705 19.6585 3.35739C19.1493 3.3609 18.8551 3.7946 18.7507 4.10409C18.3164 5.39538 17.8324 6.70702 17.6804 8.04744C17.4927 9.70085 17.2777 11.3592 17.174 13.0203C17.1131 13.9881 16.5611 14.5621 15.9048 15.0183C14.3953 16.0668 14.361 15.9482 13.7369 14.2246C12.7009 11.3613 11.19 8.78782 8.6193 6.99054C8.36994 6.8165 8.10587 6.57228 7.81728 6.76457C7.5476 6.94493 7.59033 7.26986 7.67789 7.58215C8.21934 9.50154 8.94572 11.2939 10.4097 12.7487C11.3847 13.7186 12.2148 14.8365 12.8795 16.0661C13.1492 16.565 13.3859 17.064 13.0546 17.556C12.6322 18.1841 11.9346 18.2697 11.2859 18.0226C10.4496 17.7033 9.67629 17.2191 8.84625 16.8794C6.86676 16.0696 4.83262 15.5657 2.40273 15.8036C3.21246 16.9952 3.77353 17.944 4.99793 18.2612C7.07549 18.8002 9.14114 19.3862 11.2117 19.954C12.1118 20.201 12.2526 20.4852 12.0221 21.3505C11.7651 22.3162 10.9812 22.6376 10.1771 22.8846C8.50233 23.3983 7.22539 24.4665 6.05562 25.7051C5.80906 25.9662 5.47214 26.23 5.67317 26.6294C5.92394 27.1283 6.39044 26.9417 6.79111 26.856C7.58332 26.6869 8.22354 26.249 8.78251 25.677C9.49908 24.9444 10.2444 24.2391 10.9287 23.4776C11.4274 22.9232 11.936 23.0187 12.5566 23.1997C13.3488 23.4306 13.0735 24.0342 13.1064 24.5205C13.1261 24.8138 13.0532 25.1212 12.9783 25.4111C12.5727 26.9789 12.0915 28.5298 11.7658 30.1137C11.5977 30.932 11.2965 31.7812 11.4828 32.7777C11.9794 32.591 12.1699 32.2858 12.3647 31.9973C13.0763 30.9404 13.402 29.72 13.7957 28.5312C14.2685 27.1052 14.7413 25.6777 15.1714 24.2384C15.3927 23.4973 15.7913 23.4454 16.3769 23.7871C17.0654 24.1892 17.5894 24.5949 17.5593 25.5823C17.5144 27.0238 17.8682 28.4568 18.4502 29.7734C18.9777 30.9657 19.3475 32.3209 20.6952 33.1588C20.8115 31.6871 20.9411 30.3966 20.761 29.0688C20.56 27.5887 20.663 26.0869 20.1376 24.6272C19.7853 23.6482 20.2413 23.159 21.2808 22.7358C22.2614 22.3365 22.5101 22.9176 22.8344 23.6475C23.9902 26.2469 26.3689 27.4462 28.7239 28.6372C29.1694 28.8624 29.715 28.6744 30.0204 28.2645C30.3377 27.8399 29.9293 27.4519 29.7304 27.1241C28.7463 25.5058 27.5492 24.1036 25.7133 23.3892C25.0976 23.1499 24.477 22.8966 23.9138 22.5576C23.3394 22.213 22.8337 21.7562 23.0179 20.9512C23.1979 20.1645 23.6651 19.7336 24.477 19.5666C25.6671 19.3216 26.8648 19.3448 28.064 19.3069C30.3839 19.2332 32.1092 18.1897 33.2944 16.2001C32.8166 15.7924 32.3796 15.7587 31.8759 15.8941C29.9209 16.4184 27.9414 16.8703 26.0551 17.6114C23.8795 18.4662 23.9068 18.4956 22.7686 16.4948C22.4772 15.9818 22.5493 15.7369 22.9997 15.3025C25.1999 13.1803 27.3832 11.0223 28.3288 7.65794H28.3267Z" fill="white"/>
<path d="M17.4158 18.1406C17.9923 18.274 18.5478 18.3631 18.5681 18.9603C18.5856 19.4881 18.4385 20.0621 17.7401 20.119C17.1006 20.1709 16.6068 19.7239 16.5424 19.2263C16.48 18.7407 16.985 18.3434 17.4158 18.1406Z" fill="white"/>
</svg>
