<svg width="65" height="61" viewBox="0 0 65 61" fill="none" xmlns="http://www.w3.org/2000/svg">
<rect y="4" width="57" height="57" rx="27" fill="#E1E0DF" fill-opacity="0.3"/>
<rect x="6.5" y="1.5" width="57" height="57" rx="28.5" stroke="white" stroke-width="3"/>
<path d="M30.1542 56.8349C30.8174 56.5668 31.0305 56.056 31.0169 55.3687C30.9922 54.093 31.0097 52.8164 31.0097 51.4864C30.6809 51.5372 30.4405 51.5794 30.1987 51.611C28.9323 51.7769 27.6676 51.7228 26.4299 51.4359C25.0203 51.1091 23.9927 50.2968 23.3981 48.9279C23.0554 48.1393 22.629 47.3739 22.139 46.6681C21.8313 46.2252 21.3336 45.9149 20.9253 45.5402C20.6572 45.2942 20.3647 45.065 20.1411 44.7824C19.8931 44.4684 19.9729 44.2982 20.3739 44.196C21.0833 44.0156 21.7432 44.2082 22.3724 44.5205C23.3189 44.9908 24.0494 45.6936 24.5827 46.6091C25.1302 47.5487 25.858 48.322 26.9015 48.6812C28.2599 49.1485 29.5959 48.9015 30.8929 48.3761C30.9688 48.3454 31.0466 48.2356 31.0615 48.1515C31.2521 47.0926 31.6267 46.1226 32.4476 45.3387C31.5087 45.163 30.6232 45.0452 29.7634 44.8269C27.4423 44.2379 25.3716 43.2136 23.9874 41.157C23.0004 39.6901 22.5172 38.0266 22.3151 36.2863C22.1469 34.8382 22.0967 33.3868 22.4401 31.9472C22.7563 30.6208 23.3486 29.4382 24.245 28.4142C24.4419 28.1893 24.4844 28.0049 24.3842 27.7157C23.7464 25.8748 23.9917 24.0679 24.6572 22.29C24.6952 22.1887 24.8719 22.0654 24.9732 22.0746C25.5375 22.1264 26.1228 22.1379 26.6554 22.3074C28.0158 22.7398 29.3159 23.3265 30.4965 24.1424C30.7989 24.3511 31.0723 24.3983 31.4361 24.307C34.8795 23.4399 38.3287 23.4409 41.7711 24.3126C42.1223 24.4016 42.3812 24.3449 42.6714 24.1562C44.0447 23.2645 45.4925 22.5281 47.0887 22.1171C47.117 22.1099 47.145 22.1007 47.1741 22.0947C48.2789 21.8695 48.4616 21.9902 48.7795 23.0735C49.2508 24.6793 49.3296 26.2775 48.7676 27.8819C48.7271 27.9977 48.7788 28.2011 48.8636 28.2974C50.7579 30.4516 51.1932 33.0006 50.9301 35.7537C50.7648 37.4834 50.3592 39.1364 49.5097 40.6656C48.6215 42.2644 47.2318 43.2785 45.6227 44.0542C44.1439 44.7669 42.56 45.0508 40.9555 45.2682C40.8991 45.2757 40.8437 45.2873 40.7425 45.3044C40.8315 45.4143 40.8972 45.5033 40.9714 45.5851C41.7144 46.404 42.1045 47.394 42.1372 48.4708C42.2074 50.777 42.2104 53.0855 42.2074 55.3934C42.2064 56.0639 42.3977 56.5609 43.0339 56.8353H30.1535L30.1542 56.8349Z" stroke="white" stroke-width="2.5"/>
</svg>
