<?xml version="1.0" encoding="UTF-8"?>
<svg id="Layer_2" data-name="Layer 2" xmlns="http://www.w3.org/2000/svg" viewBox="0 0 256.5 19.09">
  <defs>
    <style>
      .cls-1 {
        fill: #ffffff;
      }
    </style>
  </defs>
  <g id="Vector_layer" data-name="Vector layer">
    <g>
      <path class="cls-1" d="M255.79,17.31c-23.55-4-47.1-8.27-70.85-10.82-15.75-1.65-31.52-2.98-47.33-3.87-11.21-.8-22.45-.92-33.67-1.36-4.82-.13-9.64-.08-14.46-.03-2.9.03-5.79.06-8.68.05-4.3-.03-8.6.12-12.89.33-14.16.56-28.33,1.23-42.41,2.82-8.34.78-16.57,2.3-24.83,3.57-.6.06-.91-.86-.4-1.18.41-.32,1.02-.75,1.37-.11C20.53,3.2,39.72,1.62,58.91.81c5.69-.21,11.39-.54,17.08-.68,7.52-.04,15.02-.09,22.53-.12,10.13.07,20.26.64,30.38.91,19.89,1.03,39.73,2.65,59.53,4.72,12.57,1.58,25.13,3.36,37.63,5.41,9.99,1.69,19.98,3.39,29.97,5.1.31.07.52.4.45.72-.07.27-.32.46-.59.46-.03,0-.07,0-.1,0Z"/>
      <path class="cls-1" d="M2.77,18.69c-.43-1.01,2.55-1.49,3.19-1.75,3.24-.87,6.55-1.46,9.86-1.99,10.44-1.47,20.81-2.69,31.28-3.58,14.5-1.54,29.08-1.83,43.63-2.71,10.66.04,21.31.09,31.97.13,8.05-.12,16.08.43,24.11.86,22.03.99,44.02,2.7,66,4.44,3.62.28,7.23.56,10.85.84.32.02.58.3.56.63-.02.32-.31.58-.63.56-30.79-2.51-61.6-4.71-92.46-6.11-27.65-.3-55.34-.28-82.89,2.45-8.02.77-16.05,1.43-24.03,2.58-6.07.8-12.03,1.48-17.93,3.04-.84.25-1.7.47-2.49.84-.12.11-.29.16-.45.16-.25,0-.49-.13-.58-.4Z"/>
    </g>
  </g>
</svg>