<svg width="66" height="64" viewBox="0 0 66 64" fill="none" xmlns="http://www.w3.org/2000/svg">
<rect x="9" y="7" width="57" height="57" rx="27" fill="#E1E0DF" fill-opacity="0.3"/>
<rect x="1.5" y="1.5" width="57" height="57" rx="28.5" stroke="white" stroke-width="3"/>
<path d="M30.761 39.2833L30.3125 22.7298C30.3125 22.2133 30.4892 21.792 30.8425 21.4658C31.1959 21.1397 31.5493 20.9766 31.9026 20.9766C32.7724 20.9766 33.2753 21.3435 33.4112 22.0774C33.5199 22.8113 33.5743 23.5724 33.5743 24.3607C35.0421 22.4308 36.8768 21.4658 39.0785 21.4658C42.4491 21.4658 44.1343 25.312 44.1343 33.0044C44.1343 33.7111 44.1343 34.7848 44.1343 36.2254C44.1343 37.6389 44.0528 38.6717 43.8897 39.3241C43.6994 40.1396 43.115 40.5473 42.1365 40.5473C41.4841 40.5473 41.1579 40.1124 41.1579 39.2426L41.1987 36.9593C41.1987 33.8063 41.09 31.6589 40.8725 30.5173C40.6823 29.3485 40.492 28.4243 40.3017 27.7448C39.8396 26.277 39.0921 25.5431 38.0592 25.5431C36.7002 25.5431 35.7488 26.0323 35.2052 27.0109C34.6072 28.0709 34.2538 29.3213 34.1451 30.7619C33.9548 33.2898 33.8597 35.9672 33.8597 38.7941C33.8597 39.3377 33.6558 39.7726 33.2481 40.0988C32.8404 40.425 32.3511 40.588 31.7803 40.588C31.1008 40.588 30.761 40.1531 30.761 39.2833Z" fill="white"/>
<path d="M22.0679 15C22.5572 15 23.0193 15.231 23.4542 15.6931C23.8891 16.1552 24.1065 16.6445 24.1065 17.1609C24.1065 17.6502 23.8619 18.1531 23.3726 18.6695C22.9105 19.186 22.4213 19.4442 21.9048 19.4442C21.3884 19.4442 20.9127 19.2267 20.4778 18.7918C20.0701 18.3569 19.8662 17.7997 19.8662 17.1202C19.8662 15.8154 20.5729 15.1087 21.9864 15C22.0136 15 22.0407 15 22.0679 15ZM23.7804 36.3647L23.8211 39.2188C23.8211 39.7352 23.6173 40.1701 23.2095 40.5235C22.8018 40.8497 22.3669 41.0127 21.9048 41.0127C21.2253 41.0127 20.8719 40.673 20.8447 39.9934C20.4914 31.3225 20.3147 26.525 20.3147 25.6008C20.3147 24.6766 20.3555 23.5486 20.437 22.2167C20.4914 21.7274 20.804 21.4828 21.3748 21.4828C22.8154 21.4828 23.6309 22.0672 23.8211 23.236C23.9027 23.834 23.9434 24.3097 23.9434 24.663L23.7804 27.2317V36.3647Z" fill="white"/>
</svg>
