<?xml version="1.0" encoding="UTF-8"?>
<svg id="Layer_2" data-name="Layer 2" xmlns="http://www.w3.org/2000/svg" viewBox="0 0 67.24 102.08">
  <defs>
    <style>
      .cls-1 {
        fill: #161616;
      }

      .cls-2 {
        fill: none;
        stroke: #161616;
        stroke-linecap: round;
        stroke-miterlimit: 10;
        stroke-width: 5px;
      }
    </style>
  </defs>
  <g id="Layer_1-2" data-name="Layer 1">
    <g>
      <g>
        <path class="cls-1" d="M33.55,88.49c-.78,0-1.54-.3-2.07-.81-.65-.63-1.23-1.3-1.75-1.93-.81-.93-1.53-1.83-2.15-2.7-.42-.58-.85-1.17-1.29-1.76-.69-.94-1.39-1.89-2.07-2.84-1.2-1.67-2.32-3.39-3.41-5.05-1.24-1.89-2.24-3.49-3.15-5.03-.86-1.48-1.66-2.98-2.44-4.44,0,0-1.04-1.95-1.32-2.48-.77-1.44-1.56-2.92-2.28-4.42-.72-1.49-1.43-3-2.12-4.52-.8-1.77-1.61-3.53-2.42-5.27-.86-1.86-1.62-3.82-2.32-5.98-.56-1.79-1.14-3.68-1.52-5.65-.43-2.21-.66-4.07-.71-5.86-.06-1.9.1-3.83.48-5.89.37-2.08.89-4,1.56-5.68,1.3-3.3,3.26-6.24,5.65-8.51,1.19-1.09,2.52-2.12,4.08-3.18,1.58-1.06,3.05-1.94,4.5-2.71,1.43-.75,2.96-1.41,4.57-1.96,1.36-.47,2.85-.83,4.55-1.1l.46-.07c1.46-.23,2.96-.46,4.5-.56.59-.04,1.21-.06,1.85-.06.94,0,1.94.04,3.06.13,1.83.14,3.5.4,5.09.79,1.7.4,3.48,1,5.28,1.77.77.31,1.57.71,2.5,1.23.72.41,1.48.85,2.19,1.35,1.49,1.03,2.81,2.14,3.91,3.3.53.56,1.2,1.29,1.76,2.09.47.71.91,1.42,1.32,2.12.47.8.94,1.61,1.37,2.48.44.86.81,1.76,1.11,2.51.69,1.79,1.26,3.69,1.68,5.66.21.95.45,2.09.57,3.26.13,1.05.16,2.11.18,2.99.04,2.29-.06,4.34-.32,6.28-.15,1.06-.36,2.17-.63,3.31l-.12.5c-.2.83-.42,1.68-.68,2.54-.66,2.17-1.51,4.23-2.18,5.78-.88,2.01-1.83,3.99-2.55,5.49-.54,1.11-1.06,2.22-1.57,3.33-.37.79-.74,1.59-1.11,2.38-.98,2.12-2.14,4.18-3.24,6.08l-.76,1.28c-.82,1.37-1.66,2.79-2.55,4.18-.88,1.37-1.84,2.78-2.94,4.34-.95,1.35-1.95,2.69-2.94,4.02l-.59.81c-.63.86-1.28,1.75-1.98,2.63-.76.94-1.51,1.84-2.3,2.72l-.33.36c-.39.43-.79.86-1.16,1.31-.18.22-.34.42-.53.62-.48.53-1.25.85-2.08.85-.09,0-.19,0-.28-.01-.11.01-.22.02-.33.02h0ZM13.16,46.72c1.11,2.44,2.21,4.87,3.36,7.28.72,1.5,1.53,3.02,2.31,4.49l1.26,2.36c.64,1.21,1.28,2.42,1.96,3.62,1.45,2.59,3.13,5.28,5.47,8.72,1.12,1.64,2.21,3.17,3.33,4.68.28.38.55.76.83,1.14.6.84,1.23,1.71,1.88,2.51,0,0,.21.26.27.33.37-.42.74-.84,1.11-1.26.06-.09.13-.17.21-.25.68-.84,1.34-1.67,1.95-2.5l2.4-3.25c2.04-2.77,3.65-5.11,5.07-7.39,1.07-1.71,2.11-3.46,3.1-5.19,1.14-1.94,2-3.56,2.73-5.12l.52-1.14c.6-1.32,1.2-2.64,1.84-3.95.7-1.46,1.41-2.94,2.1-4.42h0s.03-.07.03-.07h0c.83-1.82,1.68-3.78,2.31-5.78.67-2.11,1.18-4.21,1.49-6.23v-.02c.18-1.46.28-2.94.28-4.34-.02-1.35-.05-2.81-.23-4.24-.5-3.05-1.31-5.88-2.43-8.43h0c-.54-1.11-1.15-2.18-1.63-2.98-.43-.74-.96-1.59-1.57-2.37-.98-1.1-2.12-2.15-3.35-3.04-1.45-1-2.95-1.83-4.42-2.44h0s-.04,0-.04,0c-1.04-.4-2.26-.85-3.52-1.16-1.09-.27-2.21-.49-3.32-.64-1.23-.11-2.36-.18-3.39-.2h-.31c-.96,0-1.94.06-3.01.17h0c-.13.02-.24.04-.34.05-1.28.17-2.55.38-3.77.63-1.15.25-2.27.59-3.42,1.05-1.34.55-2.56,1.14-3.7,1.79-1.33.77-2.66,1.63-3.93,2.54h0c-.71.51-1.31.99-1.84,1.47-.51.47-1.03.99-1.57,1.59l-.03.04c-1.07,1.3-1.99,2.76-2.73,4.33h0c-.84,1.99-1.47,4.26-1.86,6.74,0,.05-.01.09-.02.14-.14,1.19-.2,2.26-.2,3.28.01.94.1,1.95.27,3.26h0c.3,2.02.78,4.07,1.41,6.1.72,2.33,1.47,4.37,2.29,6.22h.01s.86,1.89.86,1.89Z"/>
        <path class="cls-1" d="M32.99,1.64c-1.61.11-3.2.37-4.8.62-1.44.23-2.86.55-4.25,1.02-1.48.51-2.94,1.13-4.32,1.85-1.5.79-2.94,1.68-4.34,2.61-1.36.92-2.67,1.91-3.87,3-2.37,2.24-4.11,5.02-5.27,7.95-.68,1.73-1.16,3.59-1.48,5.41-.34,1.85-.51,3.71-.45,5.58.06,1.89.32,3.76.68,5.62.36,1.85.91,3.67,1.48,5.48.64,1.98,1.38,3.92,2.26,5.81.82,1.75,1.63,3.52,2.43,5.28.68,1.5,1.38,3,2.1,4.49.97,2.01,2.07,3.99,3.11,5.97.95,1.77,1.88,3.53,2.88,5.26.99,1.68,2.03,3.32,3.11,4.96,1.1,1.68,2.2,3.36,3.37,5,1.1,1.54,2.24,3.06,3.36,4.59.64.9,1.35,1.77,2.09,2.61.51.62,1.04,1.24,1.63,1.8.3.29.75.38,1.16.29.4.09.84,0,1.12-.3.16-.17.3-.34.45-.52.49-.59,1.02-1.15,1.52-1.7.78-.87,1.52-1.77,2.24-2.65.89-1.11,1.71-2.26,2.54-3.39.99-1.32,1.97-2.65,2.92-3.99,1-1.41,1.97-2.83,2.9-4.28,1.14-1.78,2.2-3.6,3.28-5.41,1.14-1.96,2.24-3.92,3.18-5.97.91-1.91,1.76-3.83,2.69-5.72.87-1.8,1.73-3.6,2.52-5.42.8-1.85,1.54-3.71,2.12-5.64.3-.97.53-1.94.78-2.93.25-1.04.45-2.1.61-3.16.27-2.01.34-4.05.3-6.06-.02-.95-.06-1.91-.17-2.86-.11-1.04-.32-2.08-.55-3.11-.4-1.84-.93-3.66-1.61-5.42-.32-.81-.66-1.63-1.06-2.4-.4-.81-.85-1.59-1.31-2.37-.4-.67-.82-1.36-1.25-2.01-.47-.67-1.04-1.31-1.61-1.91-1.1-1.15-2.35-2.17-3.68-3.09-.64-.46-1.35-.87-2.03-1.25-.76-.42-1.52-.81-2.33-1.15-1.61-.69-3.3-1.27-5-1.68-1.57-.39-3.17-.62-4.8-.74-.97-.08-1.94-.13-2.91-.13-.58,0-1.15.02-1.73.06h0ZM35.05,3.85c1.2.02,2.41.1,3.61.21,1.19.16,2.36.38,3.52.67,1.29.32,2.52.76,3.75,1.24-.09-.04-.19-.09-.28-.12,1.82.73,3.52,1.69,5.12,2.79,1.35.99,2.58,2.12,3.66,3.34.64.8,1.19,1.67,1.7,2.55.61,1.02,1.18,2.03,1.69,3.09-.04-.09-.08-.18-.11-.26,1.31,2.91,2.16,5.99,2.67,9.12,0,0,0,0,0,0,.19,1.49.23,2.97.25,4.48,0,1.52-.1,3.05-.29,4.57-.34,2.18-.87,4.34-1.55,6.47-.64,2.05-1.5,4.03-2.39,5.99.04-.09.09-.18.13-.26-.74,1.59-1.5,3.18-2.26,4.75-.82,1.68-1.57,3.37-2.35,5.07-.83,1.78-1.78,3.52-2.79,5.23-1,1.77-2.05,3.52-3.13,5.25-1.59,2.56-3.34,5.05-5.14,7.49-.8,1.08-1.59,2.16-2.39,3.23-.65.9-1.35,1.77-2.05,2.63,0,0,.01-.01.02-.02-.02.03-.04.05-.07.08-.04.05-.08.1-.12.15,0-.01.02-.03.03-.04-.82.96-1.67,1.89-2.5,2.83-.56-.6-1.09-1.24-1.62-1.88-.96-1.2-1.83-2.47-2.74-3.7-1.16-1.55-2.27-3.13-3.37-4.73-1.95-2.88-3.85-5.81-5.54-8.83-.99-1.75-1.9-3.52-2.84-5.28-.93-1.75-1.88-3.5-2.73-5.28-1.44-3.04-2.82-6.11-4.23-9.19.04.09.08.18.11.28-.99-2.19-1.78-4.42-2.48-6.68-.64-2.07-1.14-4.17-1.46-6.32,0,0,0,.01,0,.02-.15-1.16-.27-2.32-.28-3.5,0-1.17.08-2.34.22-3.49,0,.02,0,.03,0,.05,0-.02,0-.05.01-.07,0-.08.02-.15.03-.23,0,.04,0,.08,0,.12.38-2.43,1-4.84,1.96-7.11-.04.09-.09.18-.13.26.81-1.78,1.83-3.46,3.08-4.98-.04.05-.09.1-.14.16.61-.69,1.23-1.34,1.91-1.96.63-.57,1.3-1.1,2-1.6,0,0,0,0,0,0,1.31-.94,2.67-1.82,4.08-2.63,1.25-.72,2.56-1.34,3.92-1.9,1.21-.48,2.44-.86,3.72-1.14,1.3-.27,2.62-.48,3.94-.66-.02,0-.05,0-.07,0,1.31-.16,2.62-.25,3.94-.23h0ZM60.34,35.5s0,.08-.01.12c0-.04,0-.08.01-.12h0ZM32,82.25c.07.08.12.15.17.21-.06-.07-.12-.14-.17-.21h0ZM35.55,85.89s-.06.07-.09.11c.03-.04.06-.08.09-.11h0ZM36.3,81.52s.06-.07.1-.11c.02-.02.03-.04.05-.06-.05.05-.1.11-.14.17h0ZM6.84,25.74s0,.01,0,.02c0-.05.02-.09.02-.13,0,.04-.01.08-.02.11h0ZM11.77,13.8s.03-.04.05-.06c-.02.02-.03.04-.05.06h0ZM31.18,4.08c.08,0,.16-.02.25-.03-.08.01-.17.02-.25.03h0Z"/>
        <path class="cls-1" d="M34.84,53.48c-.41,0-.83-.02-1.24-.06-1.63-.14-3.41-.48-5.6-1.08-1.59-.41-3.15-.99-4.6-1.71-1.47-.72-2.76-1.7-3.72-2.47-.9-.73-2.06-1.73-3.03-2.97-.65-.84-1.22-1.81-1.83-3.14l-.14-.31c-.14-.31-.27-.62-.39-.94-.1-.16-.18-.32-.24-.44l-.08-.18c-.58-1.36-.9-2.74-1.12-3.78-.33-1.58-.69-3.66-.58-5.73.13-2.26.57-4.38,1.3-6.33.83-2.21,1.7-3.92,2.72-5.39,2.21-3.21,5.48-5.8,9.2-7.28,1.77-.7,3.78-1.18,6.14-1.46,1.14-.13,2.18-.2,3.16-.22.22,0,.41,0,.59,0,.21,0,.41-.01.61-.01.61,0,1.2.02,1.78.06,1.43.13,2.48.33,3.46.65,1.03.33,1.98.74,2.83,1.21,1.71.94,3.36,2.14,4.9,3.56,1.72,1.56,3.03,3.11,3.99,4.73.57.94,1.08,1.94,1.54,3.05.37.87.8,1.92,1.09,3.09.63,2.38.89,4.79.77,7.13-.07,1.42-.19,2.5-.39,3.52-.22,1-.52,1.96-.89,2.88-.73,1.74-1.76,3.41-3.15,5.14-1.43,1.78-3.11,3.29-5.01,4.49-1.08.67-2.2,1.26-3.35,1.77-.97.43-2.02.88-3.14,1.25-1.95.66-3.83.99-5.6.99h0ZM33.33,47.54c.43.06.87.1,1.39.12.45,0,.85-.02,1.21-.07.92-.14,1.63-.3,2.28-.51.73-.22,1.45-.48,2.24-.8.07-.04.14-.07.21-.1,0,0,.12-.05.18-.07,1.7-.75,3.03-1.52,4.19-2.4.89-.71,1.74-1.56,2.56-2.57h0c-.17.25-.27.54-.29.85l.16-.38.15-.45.03.02.08-.2s-.05.06-.08.09v-.02c.84-1.1,1.49-2.16,1.99-3.26l.05-.14c.16-.4.31-.78.38-1.11.16-.6.25-1.09.32-1.6h.01s0-.04,0-.04c.18-1.66.19-3.28.02-4.82-.12-.84-.29-1.67-.53-2.48-.19-.74-.47-1.42-.76-2.15-.34-.78-.64-1.39-.96-1.93-.27-.46-.61-.96-1.04-1.53-.93-1.17-2.03-2.27-3.23-3.22h0s-.02-.02-.03-.03h0s-.11-.08-.11-.08c-1.28-.95-2.46-1.65-3.61-2.17-.26-.1-.61-.23-.97-.33-.4-.11-.81-.19-1.27-.26-.66-.06-1.44-.1-2.25-.1-1.14,0-2.35.08-3.6.22-1.67.23-3.17.59-4.55,1.1-1.3.58-2.47,1.27-3.56,2.11-.97.78-1.81,1.62-2.52,2.52-.8,1.09-1.51,2.35-2.12,3.81h0c-.52,1.38-.88,2.71-1.13,4.08,0,0,0-.02,0-.02,0,0,0,.02,0,.02l-.02.1h.01s0,0,0,0h0c-.13,1.22-.12,2.48.04,3.74h0c.14.87.31,1.77.54,2.64l.02.03c.26.93.58,1.8.96,2.6l.06.14.07.2c.46,1.06.9,1.87,1.36,2.52.74.94,1.75,1.77,2.63,2.45h0c.52.42.97.72,1.36.95.54.31,1.1.59,1.67.85h0c.98.4,1.98.73,2.97.97,1.27.33,2.4.57,3.46.74h0ZM48.91,42.08v-1.57s0,1.55,0,1.55h0ZM52.1,35.05v-1.59s0,1.59,0,1.59h0Z"/>
        <path class="cls-1" d="M34.82,11.69c-1,.02-1.99.09-3,.21-1.93.23-3.89.63-5.71,1.35-3.37,1.35-6.37,3.68-8.44,6.67-1.08,1.55-1.86,3.26-2.52,5.02-.7,1.86-1.08,3.83-1.19,5.82-.09,1.76.19,3.56.55,5.29.25,1.18.55,2.35,1.02,3.47.09.19.17.36.28.49.15.45.36.89.55,1.33.45.99.97,1.95,1.63,2.81.8,1.02,1.74,1.88,2.75,2.69,1.06.85,2.18,1.67,3.41,2.27,1.36.68,2.81,1.21,4.28,1.59,1.74.47,3.53.87,5.31,1.02,2.07.19,4.17-.19,6.14-.85,1.02-.34,2.01-.76,3-1.19,1.08-.47,2.12-1.02,3.13-1.65,1.74-1.1,3.3-2.5,4.59-4.11,1.16-1.44,2.18-3.01,2.9-4.72.34-.83.61-1.69.8-2.56.21-1.08.3-2.18.36-3.28.11-2.24-.15-4.47-.72-6.64-.25-.99-.61-1.91-1-2.84-.42-.99-.89-1.93-1.44-2.84-.97-1.63-2.27-3.07-3.68-4.34-1.38-1.27-2.92-2.41-4.57-3.32-.8-.44-1.67-.8-2.54-1.08-.99-.32-2.01-.47-3.05-.57-.55-.04-1.1-.06-1.67-.06-.38,0-.78.02-1.18.02h0ZM31.88,14.32c2.09-.25,4.23-.32,6.31-.11.49.08.97.17,1.46.3.42.11.82.27,1.21.42,1.4.63,2.69,1.44,3.92,2.35t-.04-.04s.04.04.06.06c.04.04.08.06.09.08-.02-.02-.04-.04-.06-.06.04.04.09.08.15.11h-.02c1.31,1.04,2.48,2.22,3.53,3.53.42.55.82,1.12,1.16,1.71.4.68.74,1.4,1.06,2.14.3.76.61,1.52.82,2.31.27.91.45,1.82.59,2.77.19,1.73.17,3.47-.02,5.19v.06s0,.02-.02.02h.02c-.02.06-.02.13-.04.21,0-.06.02-.13.02-.21-.08.59-.19,1.16-.34,1.73-.11.55-.34,1.08-.55,1.61-.59,1.29-1.33,2.46-2.18,3.58,0,.02-.02.04-.04.06,0,.02-.02.02-.04.04,0,.02-.02.04-.04.04h.02c-.85,1.04-1.78,1.99-2.84,2.84-1.42,1.08-2.98,1.91-4.61,2.64v-.02s-.04.02-.06.04c-.06.02-.13.06-.19.09-.82.34-1.63.64-2.46.89-.85.28-1.73.45-2.62.59-.47.06-.97.08-1.48.08-.53-.02-1.04-.06-1.57-.13.09.02.21.04.32.06-1.33-.19-2.64-.47-3.94-.82-1.1-.27-2.18-.63-3.22-1.06.06.04.13.06.19.09-.7-.3-1.38-.64-2.05-1.02-.53-.3-1.06-.68-1.57-1.08h.02c-1.08-.83-2.12-1.73-2.98-2.81-.63-.87-1.12-1.86-1.55-2.86-.03-.09-.07-.17-.1-.26-.44-.92-.79-1.88-1.06-2.88,0,0,0,0-.01,0-.28-1.06-.47-2.14-.64-3.22.02.11.04.23.06.32-.17-1.36-.19-2.75-.04-4.13,0,0,0,.02-.02.02.02,0,.02-.02.02-.02v-.06s0-.04.02-.08l-.02.02.02-.02v-.17.09c.28-1.61.74-3.18,1.35-4.74-.04.11-.08.21-.11.3.63-1.5,1.38-2.9,2.35-4.21.83-1.06,1.76-1.97,2.82-2.82,1.21-.93,2.5-1.69,3.91-2.31-.09.04-.19.08-.3.11,1.73-.68,3.53-1.1,5.35-1.35h0Z"/>
        <polygon class="cls-1" points="48.39 41.72 47.54 41.25 47.98 41.36 47.65 41.08 48.08 41.39 50.75 42.05 50.22 43.29 48.39 41.72"/>
        <path class="cls-1" d="M49.04,42.07s.01-.01.01-.02c0,0,0,.02-.01.02h0Z"/>
        <polygon class="cls-1" points="48.41 41.77 47.51 41.31 47.57 41.2 47.62 41.13 50.57 42.79 50.39 43.09 48.41 41.77"/>
        <polygon class="cls-1" points="49.03 42.08 49.04 42.07 49.03 42.08 49.03 42.08 49.03 42.08"/>
        <path class="cls-1" d="M47.54,41.24c.07-.1.15-.21.24-.31l2.58,2.2-2.83-1.89Z"/>
        <path class="cls-1" d="M48.94,42.19s.03-.04.04-.05c.01-.02.03-.04.04-.06-.03.04-.06.07-.09.11h0Z"/>
        <polygon class="cls-1" points="43.87 18.72 45.89 15.98 44.24 18.95 43.87 18.72"/>
        <path class="cls-1" d="M44.96,17.41s-.03-.02-.04-.03c.01.01.03.02.04.03h0Z"/>
        <polygon class="cls-1" points="43.76 18.61 46.04 16.09 46.13 16.17 44.2 18.94 43.76 18.61"/>
        <path class="cls-1" d="M45,17.44s-.03-.02-.04-.03c.01.01.03.03.04.03h0Z"/>
        <polygon class="cls-1" points="14.84 29.26 14.87 29.06 18.24 29.49 18.16 29.91 14.84 29.26"/>
        <path class="cls-1" d="M16.53,29.42s0,.01,0,.01c0-.02.01-.05.01-.07,0,.02,0,.04-.01.06h0Z"/>
        <path class="cls-1" d="M16.53,29.51s0,.03,0,.05c0,0,0,0,0,0,0-.01,0-.03,0-.05h0Z"/>
        <path class="cls-1" d="M16.53,29.51s0,.03,0,.05c0,0,0,0,0,0,0-.01,0-.03,0-.05h0Z"/>
        <polygon class="cls-1" points="50.43 35.06 53.83 35.06 50.43 35.1 50.43 35.06"/>
        <polygon class="cls-1" points="47.5 41.28 47.55 41.21 50.27 43.25 50.21 43.33 47.5 41.28"/>
        <path class="cls-1" d="M48.87,42.28s.03-.04.05-.06c-.02.02-.03.04-.05.06h0Z"/>
        <path class="cls-1" d="M26.27,47.42s-.06-.02-.09-.04c.04.02.06.04.09.04h0Z"/>
        <path class="cls-1" d="M26.27,47.42s-.06-.02-.09-.04c.04.02.06.04.09.04h0Z"/>
      </g>
      <path class="cls-2" d="M64.74,99.58c-8.02-1.91-18.59-3.65-31.03-3.66-12.53,0-23.16,1.74-31.21,3.66"/>
    </g>
  </g>
</svg>