<svg width="18" height="18" viewBox="0 0 18 18" fill="none" xmlns="http://www.w3.org/2000/svg">
<path d="M9 12.75V15.75" stroke="#C14A2B" stroke-linecap="round" stroke-linejoin="round"/>
<path d="M6 15.75H12" stroke="#C14A2B" stroke-linecap="round" stroke-linejoin="round"/>
<path d="M6.75 12.7498L11.325 8.17483C11.6067 7.89873 11.9858 7.7447 12.3803 7.7461C12.7747 7.74751 13.1528 7.90423 13.4325 8.18233L16.5 11.2498" stroke="#C14A2B" stroke-linecap="round" stroke-linejoin="round"/>
<path d="M6 8.25C6.82843 8.25 7.5 7.57843 7.5 6.75C7.5 5.92157 6.82843 5.25 6 5.25C5.17157 5.25 4.5 5.92157 4.5 6.75C4.5 7.57843 5.17157 8.25 6 8.25Z" stroke="#C14A2B" stroke-linecap="round" stroke-linejoin="round"/>
<path d="M15 2.25H3C2.17157 2.25 1.5 2.92157 1.5 3.75V11.25C1.5 12.0784 2.17157 12.75 3 12.75H15C15.8284 12.75 16.5 12.0784 16.5 11.25V3.75C16.5 2.92157 15.8284 2.25 15 2.25Z" stroke="#C14A2B" stroke-linecap="round" stroke-linejoin="round"/>
</svg>
